<svg xmlns="http://www.w3.org/2000/svg" id="OBJECTS" viewBox="0 0 720 613.66">
  <defs/>
  <defs>
    <style>
      .cls-2{fill:#ccc}.cls-3{fill:#303841}.cls-4{fill:#ff006e}.cls-10{fill:none;stroke-miterlimit:10;stroke-width:2px}.cls-12{fill:#3a4750}.cls-10{stroke:#303841}.cls-11{fill:#fff}
    </style>
  </defs>
  <circle cx="359.5" cy="314.21" r="258.62" fill="#8d97a0"/>
  <path d="M96.16 500.42h95.89v80.86H96.16z" class="cls-2"/>
  <rect width="133.09" height="36.3" x="76.49" y="472.84" class="cls-3" rx="6.31"/>
  <rect width="133.09" height="36.3" x="76.49" y="520.78" class="cls-3" rx="6.31"/>
  <rect width="133.09" height="36.3" x="76.49" y="568.73" class="cls-3" rx="6.31"/>
  <path d="M186.54 490.52a5.3 5.3 0 105.3-5.3 5.29 5.29 0 00-5.3 5.3zM186.54 538.45a5.3 5.3 0 105.3-5.3 5.3 5.3 0 00-5.3 5.3zM186.54 586.38a5.3 5.3 0 105.3-5.29 5.3 5.3 0 00-5.3 5.29z" class="cls-4"/>
  <path d="M264.73 79.49a57.13 57.13 0 000-28.22h-9.79a56.64 56.64 0 00-6.23-14.77l6.49-6.5a57.09 57.09 0 00-20-20l-6.55 6.55A56.73 56.73 0 00214 10.52l-.48-.11V1.77a57.13 57.13 0 00-28.22 0v8.88a56.93 56.93 0 00-15.31 6.6L164 11.3a57.31 57.31 0 00-20 20l6.31 6.31a56.56 56.56 0 00-6 15.46h-8.58a57.13 57.13 0 000 28.22h9.34a56.69 56.69 0 006.64 14.81l-6.45 6.45a57.45 57.45 0 0020 20l7-7a56.32 56.32 0 0014.74 5.58v9.63a57.44 57.44 0 0028.22 0v-10.28a57 57 0 0014.29-6.23l7 7a57.31 57.31 0 0020-20L249.2 94a56.65 56.65 0 005.88-14.53zm-64.89 23.34A37.16 37.16 0 11237 65.67a37.16 37.16 0 01-37.16 37.16z" class="cls-3"/>
  <circle cx="199.93" cy="65.72" r="53.95" fill="none" stroke="#ccc" stroke-miterlimit="10" stroke-width="4" transform="rotate(-45 199.9304912 65.71607902)"/>
  <path d="M120 163.41a34 34 0 000-16.77h-5.82a33.69 33.69 0 00-3.72-8.76l3.87-3.87a33.9 33.9 0 00-11.86-11.86l-3.91 3.91a33.85 33.85 0 00-8.74-3.64l-.29-.06v-5.14a34 34 0 00-16.77 0v5.29a33.58 33.58 0 00-9.08 3.93l-3.55-3.55a33.9 33.9 0 00-11.86 11.86l3.76 3.76a33.29 33.29 0 00-3.56 9.18h-5.09a34 34 0 000 16.77H49a33.61 33.61 0 003.94 8.78l-3.85 3.85A34.13 34.13 0 0060.91 189l4.17-4.17a33.82 33.82 0 008.77 3.36v5.74a34 34 0 0016.77 0v-6.13a33.56 33.56 0 008.46-3.8l4.18 4.17a34 34 0 0011.85-11.86l-4.32-4.31a33.27 33.27 0 003.47-8.62zm-38.52 13.87a22.08 22.08 0 1122.08-22.08 22.08 22.08 0 01-22.08 22.08z" class="cls-3"/>
  <circle cx="81.71" cy="155.55" r="23.89" fill="none" stroke="#ff006e" stroke-miterlimit="10" stroke-width="4" transform="rotate(-45 81.71241477 155.55360959)"/>
  <path d="M600.36 274.84H720v78.73H600.36z" class="cls-3"/>
  <text fill="#ccc" font-size="53.68" font-weight="700" transform="translate(618.61 331.78)">
    &lt;/&gt;
  </text>
  <path d="M326.74 24.52h96.76V90.1h-96.76z" class="cls-3"/>
  <path d="M388.49 55.77a1.18 1.18 0 010 2L377 64.43l-11.47 6.62a1.17 1.17 0 01-1.76-1v-26.5a1.18 1.18 0 011.76-1l11.47 6.6z" class="cls-2"/>
  <path fill="none" stroke="#3a4750" stroke-miterlimit="10" stroke-width="2" d="M69.32 272.86a7.59 7.59 0 11-7.59-7.59 7.59 7.59 0 017.59 7.59z"/>
  <path fill="#3a4750" stroke="#1f4666" stroke-miterlimit="10" stroke-width="2" d="M259.86 600.89a7.59 7.59 0 11-7.59-7.59 7.59 7.59 0 017.59 7.59z"/>
  <path d="M501.52 472.68h142.16v103.97H501.52z" class="cls-3"/>
  <path d="M559.13 515.84l19.76 21.82 19.77 21.82H519.6l19.76-21.82 19.77-21.82z" class="cls-2"/>
  <path d="M594.14 523.91l16.11 17.79 16.11 17.78h-64.44l16.11-17.78 16.11-17.79z" class="cls-2"/>
  <path d="M602.11 502.87a8.25 8.25 0 108.25-8.25 8.25 8.25 0 00-8.25 8.25zM386.76 529.38l7.27 8.03 7.27 8.02h-29.07l7.26-8.02 7.27-8.03z" class="cls-4"/>
  <rect width="110.46" height="68.08" x="331.84" y="545.58" class="cls-3" rx="9.69"/>
  <path d="M369.35 578.76a5.4 5.4 0 11-5.4-5.4 5.4 5.4 0 015.4 5.4zM392.55 578.76a5.4 5.4 0 11-5.4-5.4 5.4 5.4 0 015.4 5.4zM415.75 578.76a5.4 5.4 0 11-5.4-5.4 5.4 5.4 0 015.4 5.4z" class="cls-2"/>
  <path d="M628.53 162.9v21.09M639.07 173.45h-21.08" class="cls-10"/>
  <path d="M74.08 359.24l-45.91 45.91-6.46 6.46a12.72 12.72 0 01-18-18l52.37-52.37z" class="cls-3"/>
  <path d="M97.26 360.66a29.52 29.52 0 11-14-49.59l-22.39 22.4 21.83 21.79 22.4-22.4a29.49 29.49 0 01-7.84 27.8z" class="cls-2"/>
  <path d="M13.01 368.54h42.12v25.45H13.01z" class="cls-4" transform="rotate(-45 34.07181661 381.25699146)"/>
  <path d="M271.85 436.55h173.39v53.81H271.85z" class="cls-3"/>
  <path d="M254.54 479.56h208A7.46 7.46 0 01470 487v13.56H247.08V487a7.46 7.46 0 017.46-7.44z" class="cls-11"/>
  <rect width="288.65" height="426.82" x="214.23" y="93.89" class="cls-11" rx="14.87" transform="rotate(90 358.55 307.3)"/>
  <rect width="389.8" height="251.62" x="163.66" y="181.49" class="cls-2" rx="9.01"/>
  <path d="M553.45 190.5v33.82H163.66V190.5a9 9 0 019-9h371.78a9 9 0 019.01 9z" class="cls-12"/>
  <path d="M526.64 201.43a6 6 0 106-6 6 6 0 00-6 6zM502.15 201.43a6 6 0 106-6 6 6 0 00-6 6zM476.48 201.43a6 6 0 106-6 6 6 0 00-6 6z" class="cls-4"/>
  <path d="M519.4 362.08H194.89a4.92 4.92 0 01-4.92-4.92 4.93 4.93 0 014.92-4.93H519.4a4.93 4.93 0 014.92 4.93 4.92 4.92 0 01-4.92 4.92zM519.4 386.72H194.89a4.92 4.92 0 01-4.89-4.92 4.92 4.92 0 014.92-4.92H519.4a4.92 4.92 0 014.92 4.92 4.92 4.92 0 01-4.92 4.92zM264.77 411.36h-69.88a4.92 4.92 0 01-4.92-4.92 4.92 4.92 0 014.92-4.92h69.88a4.92 4.92 0 014.92 4.92 4.92 4.92 0 01-4.92 4.92zM391.31 411.36h-69.87a4.93 4.93 0 01-4.93-4.92 4.93 4.93 0 014.93-4.92h69.87a4.92 4.92 0 014.92 4.92 4.92 4.92 0 01-4.92 4.92zM517.86 411.36H448a4.92 4.92 0 01-4.92-4.92 4.92 4.92 0 014.92-4.92h69.88a4.92 4.92 0 014.92 4.92 4.92 4.92 0 01-4.94 4.92z" class="cls-12"/>
  <path d="M624.13 86.58a18.85 18.85 0 00-18.85-18.85c-.61 0-1.22 0-1.82.09a46.36 46.36 0 00-90.88-18.4 28.84 28.84 0 10-10.69 56h103.59a18.85 18.85 0 0018.65-18.84z" class="cls-3"/>
  <path d="M535.89 55.57a1 1 0 011.76 0l5.69 9.87L549 75.3a1 1 0 01-.88 1.52h-22.74a1 1 0 01-.88-1.52l5.7-9.86z" class="cls-2"/>
  <path d="M532.72 73.32h8.72v46.32h-8.72z" class="cls-2"/>
  <path d="M566.68 55.06h8.72v46.32h-8.72z" class="cls-4"/>
  <path d="M569.86 119.14a1 1 0 001.75 0l5.7-9.87L583 99.4a1 1 0 00-.88-1.52h-22.78a1 1 0 00-.88 1.52l5.7 9.87z" class="cls-4"/>
  <text fill="#303841" font-size="88.85" font-weight="600" transform="translate(246.94 313.38)">
    PGAJ<tspan x="204.47" y="0" font-size="22.21"></tspan>
  </text>
</svg>
